<svg xmlns="http://www.w3.org/2000/svg" viewBox="0 0 16 16" role="img" aria-label="Synthetic regular nucleus N079"><rect width="16" height="16" fill="#f7f1fa"/><path d="M6.406,12.111L6.27,12.05L6.136,11.987L6.003,11.921L5.871,11.851L5.741,11.778L5.613,11.701L5.487,11.62L5.364,11.535L5.243,11.446L5.126,11.353L5.011,11.256L4.901,11.154L4.794,11.049L4.691,10.939L4.593,10.826L4.499,10.709L4.41,10.589L4.325,10.466L4.245,10.34L4.169,10.211L4.098,10.08L4.031,9.947L3.969,9.812L3.912,9.676L3.858,9.538L3.809,9.398L3.765,9.257L3.725,9.115L3.69,8.972L3.659,8.828L3.633,8.683L3.613,8.538L3.597,8.392L3.587,8.246L3.583,8.1L3.584,7.954L3.591,7.808L3.604,7.663L3.622,7.519L3.646,7.376L3.675,7.234L3.709,7.094L3.749,6.955L3.793,6.818L3.841,6.682L3.894,6.549L3.95,6.417L4.01,6.287L4.074,6.159L4.14,6.033L4.209,5.908L4.281,5.784L4.356,5.663L4.434,5.543L4.515,5.424L4.599,5.308L4.686,5.193L4.776,5.081L4.871,4.971L4.968,4.863L5.07,4.759L5.176,4.659L5.285,4.562L5.399,4.469L5.517,4.381L5.638,4.297L5.764,4.219L5.893,4.146L6.025,4.078L6.16,4.016L6.298,3.96L6.438,3.909L6.58,3.864L6.724,3.824L6.869,3.789L7.016,3.76L7.163,3.735L7.311,3.715L7.46,3.7L7.609,3.688L7.758,3.682L7.907,3.679L8.056,3.68L8.206,3.686L8.354,3.696L8.503,3.71L8.651,3.728L8.799,3.751L8.946,3.778L9.092,3.811L9.237,3.847L9.381,3.889L9.523,3.935L9.664,3.987L9.803,4.042L9.939,4.103L10.074,4.167L10.207,4.236L10.337,4.309L10.465,4.385L10.591,4.465L10.714,4.549L10.835,4.635L10.954,4.725L11.07,4.817L11.184,4.913L11.296,5.011L11.406,5.112L11.513,5.215L11.617,5.322L11.719,5.432L11.817,5.544L11.912,5.66L12.004,5.779L12.091,5.9L12.174,6.025L12.252,6.153L12.324,6.284L12.392,6.418L12.453,6.555L12.508,6.693L12.558,6.834L12.6,6.976L12.637,7.12L12.667,7.265L12.691,7.411L12.709,7.557L12.722,7.704L12.729,7.85L12.731,7.996L12.728,8.142L12.721,8.287L12.709,8.432L12.694,8.575L12.674,8.718L12.651,8.86L12.625,9.001L12.595,9.142L12.562,9.281L12.524,9.42L12.484,9.557L12.439,9.693L12.39,9.828L12.337,9.961L12.28,10.093L12.219,10.223L12.153,10.351L12.082,10.476L12.007,10.599L11.927,10.719L11.843,10.837L11.755,10.951L11.663,11.062L11.566,11.17L11.466,11.275L11.362,11.377L11.255,11.475L11.145,11.569L11.031,11.661L10.915,11.749L10.796,11.834L10.674,11.915L10.55,11.992L10.423,12.067L10.293,12.137L10.161,12.203L10.027,12.265L9.89,12.322L9.751,12.375L9.61,12.423L9.467,12.465L9.322,12.502L9.175,12.532L9.027,12.557L8.878,12.576L8.728,12.589L8.578,12.595L8.427,12.596L8.277,12.59L8.127,12.579L7.977,12.563L7.829,12.541L7.681,12.515L7.534,12.484L7.389,12.449L7.245,12.41L7.102,12.368L6.96,12.322L6.82,12.274L6.681,12.222L6.543,12.168Z" fill="rgb(123,87,165)"/></svg>
