<svg xmlns="http://www.w3.org/2000/svg" viewBox="0 0 16 16" role="img" aria-label="Synthetic irregular nucleus N096"><rect width="16" height="16" fill="#f7f1fa"/><path d="M10.488,5.729L10.626,5.754L10.784,5.769L10.96,5.781L11.149,5.792L11.346,5.809L11.547,5.835L11.746,5.873L11.938,5.925L12.117,5.994L12.278,6.08L12.418,6.183L12.533,6.302L12.622,6.435L12.683,6.581L12.716,6.736L12.723,6.899L12.705,7.066L12.665,7.234L12.606,7.403L12.532,7.569L12.446,7.731L12.353,7.888L12.256,8.04L12.157,8.187L12.059,8.328L11.965,8.465L11.875,8.597L11.79,8.727L11.709,8.853L11.634,8.978L11.562,9.101L11.492,9.222L11.425,9.343L11.358,9.463L11.29,9.582L11.221,9.7L11.15,9.817L11.078,9.932L11.003,10.046L10.928,10.16L10.851,10.273L10.775,10.387L10.699,10.503L10.624,10.621L10.551,10.743L10.479,10.869L10.409,11.001L10.34,11.14L10.27,11.285L10.2,11.436L10.126,11.593L10.047,11.754L9.962,11.916L9.87,12.078L9.767,12.235L9.655,12.384L9.531,12.522L9.396,12.643L9.25,12.745L9.095,12.824L8.931,12.878L8.762,12.903L8.59,12.899L8.417,12.866L8.246,12.805L8.079,12.719L7.92,12.611L7.769,12.485L7.628,12.348L7.498,12.203L7.377,12.059L7.266,11.92L7.162,11.794L7.063,11.685L6.965,11.598L6.866,11.537L6.763,11.503L6.651,11.498L6.528,11.52L6.392,11.568L6.241,11.639L6.073,11.727L5.891,11.828L5.694,11.934L5.484,12.041L5.267,12.14L5.044,12.226L4.821,12.294L4.603,12.337L4.396,12.353L4.203,12.339L4.031,12.293L3.881,12.216L3.759,12.109L3.666,11.974L3.602,11.815L3.567,11.636L3.559,11.442L3.577,11.237L3.616,11.028L3.672,10.817L3.739,10.61L3.813,10.41L3.887,10.22L3.958,10.042L4.02,9.876L4.069,9.724L4.102,9.583L4.118,9.454L4.116,9.333L4.095,9.22L4.056,9.11L4.002,9.003L3.935,8.896L3.859,8.786L3.777,8.673L3.693,8.554L3.611,8.43L3.534,8.3L3.465,8.164L3.406,8.023L3.36,7.878L3.327,7.729L3.308,7.578L3.304,7.425L3.313,7.272L3.334,7.119L3.367,6.967L3.411,6.817L3.463,6.668L3.523,6.522L3.591,6.377L3.665,6.235L3.745,6.095L3.831,5.959L3.923,5.826L4.022,5.698L4.129,5.575L4.243,5.458L4.365,5.35L4.495,5.251L4.634,5.163L4.78,5.086L4.933,5.022L5.092,4.972L5.255,4.934L5.42,4.909L5.586,4.894L5.75,4.889L5.91,4.891L6.066,4.895L6.215,4.9L6.356,4.901L6.49,4.894L6.616,4.876L6.735,4.844L6.849,4.794L6.959,4.724L7.068,4.635L7.178,4.525L7.291,4.397L7.41,4.252L7.536,4.094L7.672,3.927L7.817,3.758L7.973,3.591L8.138,3.434L8.312,3.292L8.492,3.171L8.675,3.076L8.858,3.013L9.038,2.985L9.211,2.993L9.373,3.039L9.521,3.122L9.652,3.239L9.765,3.388L9.858,3.563L9.932,3.76L9.986,3.971L10.025,4.19L10.049,4.411L10.064,4.627L10.073,4.832L10.082,5.021L10.095,5.191L10.117,5.338L10.152,5.461L10.204,5.56L10.277,5.636L10.371,5.691Z" fill="rgb(102,62,151)"/></svg>
